PathFileType	4	(X/Y/Z)	/Users/itak/Documents/Research/Walk-IL/dataset/trc/00265_00009.trc
DataRate	CameraRate	NumFrames	NumMarkers	Units	OrigDataRate	OrigDataStartFrame	OrigNumFrames
100.000000	100.000000	4	54	mm	100.000000	0	428
Frame#	Time	RPSI			LPSI			L3			STRN			T10			C7			CLAV			RBAK			LBAK			LSHO			LUPA			LAEL			LAOL			LWTS			LWPS			LFRA			LIFD			LHPS			LHTS			RSHO			RUPA			RAEL			RAOL			RWTS			RWPS			RFRA			RIFD			RHTS			RHPS			RBHD			LFHD			RFHD			LBHD			LHIP			RHIP			RASI			LASI			LKNE			LTHI			LANK			LTIP			LTOE			LMT1			LMT5			LHEE			RKNE			RTHI			RANK			RTIP			RTOE			RMT1			RMT5			RHEE			*53			
		X1	Y1	Z1	X2	Y2	Z2	X3	Y3	Z3	X4	Y4	Z4	X5	Y5	Z5	X6	Y6	Z6	X7	Y7	Z7	X8	Y8	Z8	X9	Y9	Z9	X10	Y10	Z10	X11	Y11	Z11	X12	Y12	Z12	X13	Y13	Z13	X14	Y14	Z14	X15	Y15	Z15	X16	Y16	Z16	X17	Y17	Z17	X18	Y18	Z18	X19	Y19	Z19	X20	Y20	Z20	X21	Y21	Z21	X22	Y22	Z22	X23	Y23	Z23	X24	Y24	Z24	X25	Y25	Z25	X26	Y26	Z26	X27	Y27	Z27	X28	Y28	Z28	X29	Y29	Z29	X30	Y30	Z30	X31	Y31	Z31	X32	Y32	Z32	X33	Y33	Z33	X34	Y34	Z34	X35	Y35	Z35	X36	Y36	Z36	X37	Y37	Z37	X38	Y38	Z38	X39	Y39	Z39	X40	Y40	Z40	X41	Y41	Z41	X42	Y42	Z42	X43	Y43	Z43	X44	Y44	Z44	X45	Y45	Z45	X46	Y46	Z46	X47	Y47	Z47	X48	Y48	Z48	X49	Y49	Z49	X50	Y50	Z50	X51	Y51	Z51	X52	Y52	Z52	X53	Y53	Z53	X54	Y54	Z54	

1	0	-1435.814208984375	1051.117553710938	722.5947265625	-1421.830444335938	1052.832153320312	602.793701171875	-1430.7138671875	1136.318115234375	643.183837890625	-1182.086059570312	1313.05224609375	658.2200317382812	-1436.5361328125	1262.643310546875	642.0869140625	-1363.212036132812	1520.60498046875	634.2125244140625	-1201.265014648438	1432.8486328125	653.2195434570312	-1451.045776367188	1388.311401367188	706.8143920898438	-1375.424194335938	1480.934936523438	523.3577880859375	-1281.815185546875	1475.941284179688	476.3453063964844	-1307.6884765625	1357.18505859375	398.6031188964844	-1295.252563476562	1146.498901367188	371.778076171875	-1367.977783203125	1129.729614257812	418.1146545410156	-1199.193725585938	915.6963500976562	432.5834655761719	-1223.094848632812	897.3870239257812	353.7288818359375	-1271.0947265625	1039.759155273438	359.45849609375	-1177.617553710938	719.95556640625	422.3673706054688	-1200.365234375	809.9480590820312	360.0375061035156	-1158.342895507812	818.7178344726562	413.4189758300781	-1322.298583984375	1487.80810546875	809.1431884765625	-1349.779174804688	1427.336547851562	877.3629150390625	-1382.9970703125	1147.487915039062	924.2592163085938	-1405.063232421875	1139.419677734375	831.7932739257812	-1247.870361328125	928.0687866210938	900.7003173828125	-1306.171752929688	917.399658203125	961.79052734375	-1359.982543945312	1079.015014648438	941.55615234375	-1233.316772460938	735.6119995117188	902.0398559570312	-1210.11279296875	808.5077514648438	920.9534301757812	-1264.820556640625	808.6234741210938	968.3223266601562	-1306.928955078125	1663.89208984375	714.28076171875	-1137.794555664062	1723.811889648438	574.5070190429688	-1112.646484375	1718.913330078125	671.0450439453125	-1296.857543945312	1679.244873046875	574.149169921875	-1307.394409179688	984.7179565429688	473.7241516113281	-1348.440673828125	1014.731872558594	838.9911499023438	-1249.941528320312	1054.860717773438	810.4429321289062	-1212.341674804688	1027.038208007812	531.7201538085938	-1300.236694335938	501.5035705566406	547.269287109375	-1289.959838867188	643.1114501953125	509.3335571289062	-1409.555297851562	38.2762565612793	584.184326171875	-1359.796142578125	279.7152099609375	553.3350830078125	-1193.528564453125	46.77048873901367	640.6004028320312	-1262.310913085938	37.29365921020508	684.4877319335938	-1280.365600585938	43.64730834960938	569.84716796875	-1471.776123046875	42.26850891113281	637.1383666992188	-1287.72412109375	520.9788208007812	834.2925415039062	-1284.504760742188	790.900634765625	863.594970703125	-1450.426635742188	13.34232711791992	805.3974609375	-1290.432861328125	400.5554809570312	825.6875	-1196.380493164062	47.92879104614258	804.6513671875	-1249.325927734375	45.53640365600586	758.9721069335938	-1303.889404296875	42.31007766723633	867.1698608398438	-1469.450317382812	45.87267303466797	769.532470703125	nan	nan	nan	
2	0.01	-1435.41796875	1050.831298828125	722.0388793945312	-1421.4375	1052.6318359375	602.1864624023438	-1430.260498046875	1136.142944335938	642.6307373046875	-1181.48046875	1312.94482421875	657.6214599609375	-1435.9765625	1262.5576171875	641.4872436523438	-1362.573608398438	1520.465087890625	633.5240478515625	-1200.6318359375	1432.701293945312	652.490234375	-1450.40380859375	1388.241088867188	706.2528076171875	-1374.818969726562	1480.751953125	522.681884765625	-1281.2236328125	1475.699829101562	475.6531066894531	-1307.147216796875	1356.91748046875	397.9808654785156	-1294.74169921875	1146.258544921875	371.0151672363281	-1367.466064453125	1129.501220703125	417.3414611816406	-1198.71484375	915.4780883789062	431.7227172851562	-1222.5556640625	897.1625366210938	352.8970336914062	-1270.601928710938	1039.541259765625	358.6612548828125	-1176.877197265625	719.8172607421875	421.5390014648438	-1199.738647460938	809.7394409179688	359.1986083984375	-1157.6884765625	818.5507202148438	412.5877990722656	-1321.597900390625	1487.769409179688	808.4848022460938	-1349.107788085938	1427.317993164062	876.71142578125	-1382.52587890625	1147.407470703125	923.3818969726562	-1404.157348632812	1139.287841796875	830.739990234375	-1247.122192382812	928.053955078125	900.7737426757812	-1305.841796875	917.3272094726562	961.4229736328125	-1359.500732421875	1078.951049804688	940.7831420898438	-1232.645385742188	735.4457397460938	902.4993896484375	-1209.456298828125	808.5659790039062	921.48974609375	-1264.545043945312	808.797119140625	968.4812622070312	-1305.744018554688	1663.236938476562	714.4271240234375	-1138.4775390625	1724.289184570312	572.9113159179688	-1112.181396484375	1719.17626953125	669.1190185546875	-1297.372802734375	1679.059204101562	574.2982177734375	-1307.095825195312	984.5667114257812	473.058837890625	-1347.992065429688	1014.469665527344	838.4083862304688	-1249.429931640625	1054.710815429688	809.693359375	-1211.96923828125	1026.876586914062	531.046142578125	-1299.96533203125	501.339111328125	546.8611450195312	-1289.7080078125	642.936279296875	508.8047180175781	-1409.550415039062	38.25149154663086	584.16015625	-1359.581176757812	279.6098022460938	553.1709594726562	-1193.545776367188	46.76958084106445	640.6002807617188	-1262.318725585938	37.28916549682617	684.4695434570312	-1280.364013671875	43.63662719726562	569.8316040039062	-1471.772827148438	42.25630569458008	637.141357421875	-1284.383178710938	521.1221313476562	833.8722534179688	-1283.087158203125	790.9412841796875	862.9404296875	-1449.950317382812	13.86211776733398	804.9786376953125	-1287.540283203125	400.4630432128906	825.5315551757812	-1196.338745117188	47.89827728271484	804.7667236328125	-1249.255981445312	45.55180740356445	758.9912109375	-1303.802612304688	42.43512725830078	867.0372314453125	-1469.192993164062	46.87057876586914	769.33984375	nan	nan	nan	
3	0.02	-1434.897338867188	1050.504760742188	721.3472290039062	-1420.908447265625	1052.386962890625	601.4287719726562	-1429.658813476562	1135.9365234375	641.9422607421875	-1180.701782226562	1312.816650390625	656.8690185546875	-1435.25537109375	1262.4453125	640.7592163085938	-1361.757446289062	1520.301513671875	632.670166015625	-1199.811767578125	1432.529663085938	651.5958251953125	-1449.586181640625	1388.165649414062	705.5492553710938	-1374.041870117188	1480.521850585938	521.8492431640625	-1280.457153320312	1475.406616210938	474.8015441894531	-1306.439819335938	1356.5888671875	397.2122192382812	-1294.079345703125	1145.96337890625	370.0859680175781	-1366.802612304688	1129.220458984375	416.4062194824219	-1198.068237304688	915.207275390625	430.6683654785156	-1221.867919921875	896.9025268554688	351.863525390625	-1269.970092773438	1039.27294921875	357.6784973144531	-1175.940185546875	719.6581420898438	420.5047912597656	-1198.961791992188	809.4815063476562	358.1471252441406	-1156.872436523438	818.3311157226562	411.5439453125	-1320.710205078125	1487.739379882812	807.665283203125	-1348.252685546875	1427.3095703125	875.9076538085938	-1381.873901367188	1147.3349609375	922.3237915039062	-1402.994262695312	1139.147583007812	829.49365234375	-1246.157470703125	928.0482177734375	900.84716796875	-1305.362060546875	917.2716064453125	960.9915161132812	-1358.839965820312	1078.893188476562	939.8596801757812	-1231.752563476562	735.2532958984375	903.048583984375	-1208.581298828125	808.6432495117188	922.1006469726562	-1264.148315429688	809.0277709960938	968.6746826171875	-1304.233764648438	1662.428466796875	714.5875854492188	-1139.30078125	1724.86767578125	570.9432983398438	-1111.595703125	1719.51708984375	666.73193359375	-1297.952880859375	1678.809814453125	574.476806640625	-1306.693969726562	984.3817138671875	472.2081298828125	-1347.407104492188	1014.171325683594	837.671630859375	-1248.785888671875	1054.544067382812	808.7791748046875	-1211.449340820312	1026.67041015625	530.1930541992188	-1299.645874023438	501.1375427246094	546.3366088867188	-1289.37353515625	642.7110595703125	508.1565246582031	-1409.544311523438	38.22176742553711	584.1309204101562	-1359.342407226562	279.4783020019531	552.9728393554688	-1193.564575195312	46.77007675170898	640.6018676757812	-1262.327392578125	37.28438186645508	684.44775390625	-1280.360717773438	43.62473297119141	569.8119506835938	-1471.76953125	42.23973846435547	637.1456909179688	-1280.0576171875	521.3151245117188	833.3118896484375	-1281.213745117188	790.9876708984375	862.097412109375	-1449.342895507812	14.71284675598145	804.474853515625	-1283.789306640625	400.4089050292969	825.287109375	-1196.277099609375	47.86398315429688	804.935791015625	-1249.124755859375	45.59130477905273	759.0042724609375	-1303.65576171875	42.64056396484375	866.8494262695312	-1468.842529296875	48.28638458251953	769.0809936523438	nan	nan	nan	
4	0.03	-1434.26171875	1050.168823242188	720.5498657226562	-1420.250610351562	1052.114501953125	600.5548706054688	-1428.919677734375	1135.71826171875	641.1467895507812	-1179.776489257812	1312.674194335938	655.9933471679688	-1434.3916015625	1262.311889648438	639.9423217773438	-1360.789916992188	1520.127563476562	631.6920776367188	-1198.827514648438	1432.347412109375	650.5830688476562	-1448.620361328125	1388.094848632812	704.7349853515625	-1373.116821289062	1480.256713867188	520.9036254882812	-1279.537475585938	1475.079833984375	473.833740234375	-1305.584838867188	1356.219848632812	396.3334045410156	-1293.286499023438	1145.632080078125	369.0408325195312	-1366.003051757812	1128.90185546875	415.3652038574219	-1197.262573242188	914.8980102539062	429.4760131835938	-1221.05517578125	896.6270751953125	350.6773071289062	-1269.217651367188	1038.969482421875	356.5612487792969	-1174.837890625	719.4937744140625	419.3141784667969	-1198.071655273438	809.1912841796875	356.928955078125	-1155.931884765625	818.0648193359375	410.3328552246094	-1319.666748046875	1487.728149414062	806.72216796875	-1347.239501953125	1427.318969726562	874.9931030273438	-1381.036010742188	1147.287109375	921.1535034179688	-1401.612670898438	1139.017333984375	828.1446533203125	-1245.002197265625	928.058349609375	900.908447265625	-1304.717895507812	917.2520141601562	960.5305786132812	-1357.998901367188	1078.857177734375	938.8489990234375	-1230.665405273438	735.058349609375	903.6470947265625	-1207.50439453125	808.7423706054688	922.7268676757812	-1263.61572265625	809.3075561523438	968.8903198242188	-1302.451049804688	1661.511596679688	714.740234375	-1140.209228515625	1725.512329101562	568.7025756835938	-1110.91162109375	1719.926147460938	663.9999389648438	-1298.538330078125	1678.500732421875	574.6689453125	-1306.188598632812	984.1727294921875	471.2103576660156	-1346.692626953125	1013.866638183594	836.806640625	-1248.019409179688	1054.376098632812	807.748291015625	-1210.791748046875	1026.42919921875	529.1959228515625	-1299.301391601562	500.910400390625	545.7169799804688	-1288.960693359375	642.4467163085938	507.4272766113281	-1409.537475585938	38.18852615356445	584.0994873046875	-1359.103149414062	279.3266296386719	552.7490844726562	-1193.584228515625	46.77322769165039	640.60546875	-1262.335205078125	37.27948760986328	684.4234619140625	-1280.355834960938	43.61285018920898	569.7894287109375	-1471.766845703125	42.21950912475586	637.1506958007812	-1274.859130859375	521.5657958984375	832.6193237304688	-1278.909912109375	791.0503540039062	861.0831909179688	-1448.610229492188	15.96666145324707	803.9439697265625	-1279.281982421875	400.4283447265625	824.9434814453125	-1196.188598632812	47.84716415405273	805.1718139648438	-1248.91357421875	45.67018890380859	759.0064697265625	-1303.432983398438	42.947021484375	866.6082763671875	-1468.3955078125	50.13246154785156	768.7579345703125	nan	nan	nan	
